<svg xmlns="http://www.w3.org/2000/svg" version="1.1" xmlns:xlink="http://www.w3.org/1999/xlink" xmlns:svgjs="http://svgjs.dev/svgjs" width="1000" height="1000"><style>
    #light-icon {
      display: inline;
    }
    #dark-icon {
      display: none;
    }

    @media (prefers-color-scheme: dark) {
      #light-icon {
        display: none;
      }
      #dark-icon {
        display: inline;
      }
    }
  </style><g id="light-icon"><svg xmlns="http://www.w3.org/2000/svg" version="1.1" xmlns:xlink="http://www.w3.org/1999/xlink" xmlns:svgjs="http://svgjs.dev/svgjs" width="1000" height="1000"><g clip-path="url(#SvgjsClipPath1683)"><rect width="1000" height="1000" fill="#508bcd"></rect><g transform="matrix(12.5,0,0,12.5,181.25,150)"><svg xmlns="http://www.w3.org/2000/svg" version="1.1" xmlns:xlink="http://www.w3.org/1999/xlink" xmlns:svgjs="http://svgjs.dev/svgjs" width="51" height="56"><svg width="51" height="56" viewBox="0 0 51 56" fill="none" xmlns="http://www.w3.org/2000/svg">
<path d="M47.32 43.352C47.96 43.096 48.4933 42.968 48.92 42.968C49.6027 42.968 50.1147 43.224 50.456 43.736C50.7973 44.248 50.968 44.9093 50.968 45.72C50.968 47 50.648 48.088 50.008 48.984C49.4107 49.88 48.3653 50.6907 46.872 51.416C44.3547 52.6107 41.0907 53.5707 37.08 54.296C33.0693 54.9787 29.1227 55.32 25.24 55.32C19.864 55.32 15.3627 54.7227 11.736 53.528C8.10933 52.2907 5.4 50.6053 3.608 48.472C1.85867 46.3387 0.984 43.928 0.984 41.24C0.984 37.5707 2.15733 34.456 4.504 31.896C6.89333 29.2933 10.392 27.416 15 26.264C12.4827 25.5387 10.5413 24.2587 9.176 22.424C7.85333 20.5893 7.192 18.5413 7.192 16.28C7.192 13.208 8.152 10.4987 10.072 8.152C12.0347 5.76266 14.6587 3.928 17.944 2.648C21.2293 1.368 24.8347 0.727997 28.76 0.727997C34.0507 0.727997 38.0187 1.88 40.664 4.184C43.3093 6.44533 44.632 9.38933 44.632 13.016C44.632 15.5333 44.1627 17.5813 43.224 19.16C42.328 20.696 41.0267 21.464 39.32 21.464C38.1253 21.464 37.1867 21.208 36.504 20.696C35.8213 20.1413 35.48 19.3307 35.48 18.264C35.48 17.5387 35.5867 16.7493 35.8 15.896C36.0133 14.488 36.12 13.528 36.12 13.016C36.12 11.48 35.544 10.2427 34.392 9.304C33.24 8.32266 31.32 7.832 28.632 7.832C25.0053 7.832 22.104 8.6 19.928 10.136C17.752 11.672 16.664 13.7413 16.664 16.344C16.664 18.3493 17.4747 20.0133 19.096 21.336C20.76 22.616 23.448 23.32 27.16 23.448C28.0987 23.4907 28.76 23.704 29.144 24.088C29.528 24.472 29.72 25.112 29.72 26.008C29.72 28.824 28.44 30.2533 25.88 30.296C22.3387 30.3813 19.3947 30.872 17.048 31.768C14.744 32.664 13.0587 33.816 11.992 35.224C10.968 36.5893 10.456 38.0613 10.456 39.64C10.456 42.2853 11.6933 44.2907 14.168 45.656C16.6427 46.9787 20.568 47.64 25.944 47.64C29.4853 47.64 33.2187 47.2347 37.144 46.424C41.112 45.5707 44.504 44.5467 47.32 43.352Z" fill="white"></path>
</svg></svg></g></g><defs><clipPath id="SvgjsClipPath1683"><rect width="1000" height="1000" x="0" y="0" rx="350" ry="350"></rect></clipPath></defs></svg></g><g id="dark-icon"><svg xmlns="http://www.w3.org/2000/svg" version="1.1" xmlns:xlink="http://www.w3.org/1999/xlink" xmlns:svgjs="http://svgjs.dev/svgjs" width="1000" height="1000"><g><g transform="matrix(17.857142857142858,0,0,17.857142857142858,44.64285714285711,0)"><svg xmlns="http://www.w3.org/2000/svg" version="1.1" xmlns:xlink="http://www.w3.org/1999/xlink" xmlns:svgjs="http://svgjs.dev/svgjs" width="51" height="56"><svg width="51" height="56" viewBox="0 0 51 56" fill="none" xmlns="http://www.w3.org/2000/svg">
<path d="M47.32 43.352C47.96 43.096 48.4933 42.968 48.92 42.968C49.6027 42.968 50.1147 43.224 50.456 43.736C50.7973 44.248 50.968 44.9093 50.968 45.72C50.968 47 50.648 48.088 50.008 48.984C49.4107 49.88 48.3653 50.6907 46.872 51.416C44.3547 52.6107 41.0907 53.5707 37.08 54.296C33.0693 54.9787 29.1227 55.32 25.24 55.32C19.864 55.32 15.3627 54.7227 11.736 53.528C8.10933 52.2907 5.4 50.6053 3.608 48.472C1.85867 46.3387 0.984 43.928 0.984 41.24C0.984 37.5707 2.15733 34.456 4.504 31.896C6.89333 29.2933 10.392 27.416 15 26.264C12.4827 25.5387 10.5413 24.2587 9.176 22.424C7.85333 20.5893 7.192 18.5413 7.192 16.28C7.192 13.208 8.152 10.4987 10.072 8.152C12.0347 5.76266 14.6587 3.928 17.944 2.648C21.2293 1.368 24.8347 0.727997 28.76 0.727997C34.0507 0.727997 38.0187 1.88 40.664 4.184C43.3093 6.44533 44.632 9.38933 44.632 13.016C44.632 15.5333 44.1627 17.5813 43.224 19.16C42.328 20.696 41.0267 21.464 39.32 21.464C38.1253 21.464 37.1867 21.208 36.504 20.696C35.8213 20.1413 35.48 19.3307 35.48 18.264C35.48 17.5387 35.5867 16.7493 35.8 15.896C36.0133 14.488 36.12 13.528 36.12 13.016C36.12 11.48 35.544 10.2427 34.392 9.304C33.24 8.32266 31.32 7.832 28.632 7.832C25.0053 7.832 22.104 8.6 19.928 10.136C17.752 11.672 16.664 13.7413 16.664 16.344C16.664 18.3493 17.4747 20.0133 19.096 21.336C20.76 22.616 23.448 23.32 27.16 23.448C28.0987 23.4907 28.76 23.704 29.144 24.088C29.528 24.472 29.72 25.112 29.72 26.008C29.72 28.824 28.44 30.2533 25.88 30.296C22.3387 30.3813 19.3947 30.872 17.048 31.768C14.744 32.664 13.0587 33.816 11.992 35.224C10.968 36.5893 10.456 38.0613 10.456 39.64C10.456 42.2853 11.6933 44.2907 14.168 45.656C16.6427 46.9787 20.568 47.64 25.944 47.64C29.4853 47.64 33.2187 47.2347 37.144 46.424C41.112 45.5707 44.504 44.5467 47.32 43.352Z" fill="white"></path>
</svg></svg></g></g></svg></g></svg>